<?xml version="1.0" encoding="utf-8"?>
<!-- Generator: Adobe Illustrator 25.0.1, SVG Export Plug-In . SVG Version: 6.00 Build 0)  -->
<svg version="1.1" id="Calque_1" xmlns="http://www.w3.org/2000/svg" xmlns:xlink="http://www.w3.org/1999/xlink" x="0px" y="0px"
	 viewBox="0 0 600 200" style="enable-background:new 0 0 600 200;" xml:space="preserve">
<style type="text/css">
	.st0{fill:#CFA671;}
	.st1{stroke:#CFA671;stroke-width:2.9015;stroke-miterlimit:10;}
	.st2{fill:#FFFFFF;}
	.st3{enable-background:new    ;}
	.st4{fill:none;stroke:#FFFFFF;stroke-width:1.4507;stroke-miterlimit:10;}
</style>
<g>
	<path d="M209.01,62.45c-0.02-0.54,0.16-1.05,0.26-1.53c0.12-0.47,0.19-0.93,0.23-1.35c0.08-0.86-0.04-1.65-0.26-2.43
		c-0.2-0.79-0.57-1.56-0.92-2.35c-0.22-0.39-0.38-0.79-0.61-1.17l-0.33-0.59l-0.16-0.3L207,52.31c-0.6-1.2-0.69-2.58-0.46-3.73
		c0.23-1.17,0.71-2.19,1.28-3.08c1.16-1.78,2.68-3.18,4.44-4.19c-0.94,1.78-1.82,3.5-2.4,5.2c-0.59,1.7-0.74,3.35-0.1,4.38
		l0.72,1.23c0.25,0.46,0.46,0.96,0.68,1.44c0.37,1.02,0.68,2.08,0.71,3.23c0.03,1.14-0.2,2.35-0.77,3.33
		c-0.28,0.49-0.64,0.91-0.99,1.29C209.74,61.78,209.36,62.06,209.01,62.45z"/>
</g>
<g>
	<path d="M217.06,62.45c0.09-0.76,0.47-1.37,0.51-1.94c0.08-0.56,0-1.03-0.19-1.51c-0.16-0.48-0.46-0.97-0.76-1.45
		c-0.17-0.24-0.31-0.5-0.51-0.73c-0.19-0.27-0.31-0.42-0.62-0.89c-0.51-0.84-0.59-1.95-0.32-2.77c0.24-0.84,0.71-1.48,1.18-2.04
		c0.99-1.09,2.16-1.89,3.47-2.4c-0.78,1.15-1.55,2.24-2.09,3.34c-0.28,0.54-0.46,1.1-0.52,1.56c-0.06,0.48,0.04,0.8,0.24,1.1
		c0.08,0.09,0.35,0.46,0.56,0.73c0.22,0.28,0.41,0.62,0.59,0.94c0.35,0.67,0.65,1.4,0.72,2.25c0.06,0.83-0.11,1.75-0.61,2.4
		c-0.22,0.34-0.53,0.58-0.8,0.81C217.63,62.07,217.33,62.21,217.06,62.45z"/>
</g>
<g>
	<path d="M201.15,62.45c0.09-0.76,0.47-1.37,0.51-1.94c0.08-0.56,0-1.03-0.19-1.51c-0.16-0.48-0.46-0.97-0.76-1.45
		c-0.17-0.24-0.31-0.5-0.51-0.73c-0.19-0.27-0.31-0.42-0.62-0.89c-0.51-0.84-0.59-1.95-0.32-2.77c0.24-0.84,0.71-1.48,1.18-2.04
		c0.99-1.09,2.16-1.89,3.47-2.4c-0.78,1.15-1.55,2.24-2.09,3.34c-0.28,0.54-0.46,1.1-0.52,1.56c-0.06,0.48,0.04,0.8,0.24,1.1
		c0.08,0.09,0.35,0.46,0.56,0.73c0.22,0.28,0.41,0.62,0.59,0.94c0.35,0.67,0.65,1.4,0.72,2.25c0.06,0.83-0.11,1.75-0.61,2.4
		c-0.22,0.34-0.53,0.58-0.8,0.81C201.71,62.07,201.42,62.21,201.15,62.45z"/>
</g>
<circle cx="137.88" cy="47.98" r="31.39"/>
<path d="M75.19,90.57H45.85c0,0,0-1.68,0-3.91c0-2.8,9.75-20.4,24.03-20.4s24.03,17.6,24.03,20.4c0,2.24,0,3.91,0,3.91H64.57"/>
<path d="M73.38,63.19l-2.75,2.76c-0.41,0.41-1.08,0.41-1.49,0l-2.75-2.75c-0.41-0.41-0.41-1.08,0-1.5l2.75-2.76
	c0.41-0.41,1.08-0.41,1.49,0l2.75,2.75C73.79,62.11,73.79,62.78,73.38,63.19z"/>
<rect x="45.85" y="90.57" class="st0" width="48.06" height="3.78"/>
<rect x="63.32" y="96.98" class="st0" width="30.9" height="3.78"/>
<path d="M199.9,70.04h29.34c0,0,0,1.68,0,3.91c0,2.8-9.75,20.4-24.03,20.4s-24.03-17.6-24.03-20.4c0-2.24,0-3.91,0-3.91h29.34"/>
<rect x="181.18" y="66.25" class="st0" width="48.06" height="3.78"/>
<rect x="181.18" y="96.98" class="st0" width="30.9" height="3.78"/>
<path class="st0" d="M177.53,105.31V89.93h-29.78h-19.73H98.23v15.37H73.64v32c0,0,2.43,17.41,23.49,14.58v22.05h30.89h19.73h30.89
	v-22.05c21.06,2.83,23.49-14.58,23.49-14.58v-32L177.53,105.31L177.53,105.31z"/>
<g>
	<polygon class="st1" points="139.43,90.89 108.35,78.34 108.35,96.96 	"/>
	<polygon class="st1" points="136.33,90.89 167.4,78.34 167.4,96.96 	"/>
</g>
<g>
	<circle class="st2" cx="130.77" cy="108.36" r="4.66"/>
	<circle class="st2" cx="130.77" cy="129.37" r="4.66"/>
	<circle class="st2" cx="130.77" cy="150.38" r="4.66"/>
	<circle class="st2" cx="144.99" cy="108.36" r="4.66"/>
	<circle class="st2" cx="144.99" cy="129.37" r="4.66"/>
	<circle class="st2" cx="144.99" cy="150.38" r="4.66"/>
</g>
<g class="st3">
	<path d="M243.12,142.41c0-0.39,0.14-0.74,0.41-1.03c0.27-0.29,0.61-0.43,1-0.43H252c1.09,0,2.11,0.21,3.05,0.62
		c0.94,0.41,1.77,0.97,2.48,1.69c0.71,0.71,1.28,1.54,1.69,2.48s0.61,1.94,0.61,3.01c0,0.97-0.17,1.88-0.5,2.73
		c-0.33,0.85-0.79,1.62-1.37,2.3c-0.58,0.68-1.27,1.26-2.07,1.73c-0.81,0.47-1.66,0.78-2.57,0.93l6.92,11.25
		c0.09,0.15,0.17,0.32,0.25,0.5c0.08,0.18,0.11,0.38,0.11,0.59c0,0.24-0.11,0.52-0.34,0.82c-0.23,0.3-0.55,0.46-0.98,0.46
		c-0.27,0-0.52-0.07-0.75-0.23c-0.23-0.15-0.42-0.35-0.57-0.59l-7.79-12.71h-4.24v12.12c0,0.39-0.14,0.73-0.41,1
		c-0.27,0.27-0.61,0.41-1,0.41c-0.4,0-0.73-0.14-1-0.41s-0.41-0.61-0.41-1V142.41z M245.94,143.78v9.93H252
		c0.67,0,1.31-0.13,1.91-0.39c0.61-0.26,1.14-0.62,1.59-1.07s0.81-0.98,1.07-1.57c0.26-0.59,0.39-1.24,0.39-1.94
		c0-0.67-0.13-1.3-0.39-1.91c-0.26-0.61-0.61-1.14-1.07-1.6s-0.99-0.81-1.59-1.07c-0.61-0.26-1.25-0.39-1.91-0.39H245.94z"/>
	<path d="M276.33,160.41c0.15,0.97,0.47,1.88,0.96,2.71c0.49,0.84,1.09,1.56,1.8,2.16c0.71,0.61,1.53,1.09,2.44,1.44
		s1.87,0.52,2.87,0.52c1.12,0,2.17-0.21,3.14-0.62c0.97-0.41,1.84-0.98,2.6-1.71c0.27-0.27,0.61-0.41,1-0.41
		c0.39,0,0.73,0.14,1,0.41c0.27,0.27,0.41,0.61,0.41,1s-0.14,0.73-0.41,1c-1,1.12-2.13,1.92-3.39,2.39
		c-1.26,0.47-2.71,0.71-4.35,0.71c-1.52,0-2.94-0.27-4.26-0.82c-1.32-0.55-2.48-1.3-3.48-2.28s-1.79-2.12-2.37-3.46
		c-0.58-1.34-0.87-2.79-0.87-4.37c0-1.52,0.28-2.94,0.84-4.26c0.56-1.32,1.34-2.47,2.32-3.46c0.99-0.99,2.16-1.78,3.51-2.37
		c1.35-0.59,2.82-0.92,4.4-0.98c1.43,0,2.8,0.29,4.12,0.87c1.32,0.58,2.48,1.37,3.48,2.37c1,1,1.81,2.16,2.41,3.48
		c0.61,1.32,0.91,2.74,0.91,4.26c0,0.46-0.15,0.8-0.46,1.05c-0.3,0.24-0.62,0.36-0.96,0.36H276.33z M292.46,157.58
		c-0.18-0.94-0.52-1.82-1-2.64c-0.49-0.82-1.09-1.53-1.8-2.12c-0.71-0.59-1.52-1.06-2.41-1.41c-0.9-0.35-1.85-0.53-2.85-0.53
		c-1,0-1.95,0.18-2.85,0.53c-0.9,0.35-1.7,0.82-2.41,1.41c-0.71,0.59-1.31,1.3-1.78,2.12c-0.47,0.82-0.8,1.7-0.98,2.64H292.46z"/>
	<path d="M308.81,153.71c0-1.06,0.21-1.96,0.64-2.69c0.42-0.73,0.99-1.32,1.69-1.78c0.7-0.46,1.49-0.78,2.37-0.98
		c0.88-0.2,1.76-0.29,2.64-0.29c0.73,0,1.5,0.08,2.32,0.25c0.82,0.17,1.58,0.42,2.28,0.75c0.7,0.33,1.28,0.74,1.73,1.23
		c0.46,0.49,0.68,1.06,0.68,1.73c0,0.33-0.11,0.66-0.34,0.98c-0.23,0.32-0.6,0.48-1.12,0.48c-0.58,0-1.02-0.33-1.32-1
		c-0.27-0.58-0.8-1.01-1.59-1.3c-0.79-0.29-1.67-0.43-2.64-0.43c-0.52,0-1.04,0.04-1.57,0.11c-0.53,0.08-1.01,0.23-1.43,0.46
		c-0.43,0.23-0.78,0.54-1.07,0.94c-0.29,0.39-0.43,0.91-0.43,1.55c0,0.46,0.14,0.85,0.43,1.18c0.29,0.33,0.65,0.62,1.09,0.84
		c0.44,0.23,0.93,0.4,1.46,0.52c0.53,0.12,1.04,0.23,1.53,0.32c1.12,0.18,2.18,0.45,3.17,0.8c0.99,0.35,1.85,0.8,2.6,1.34
		c0.74,0.55,1.34,1.2,1.78,1.96c0.44,0.76,0.66,1.64,0.66,2.64s-0.21,1.92-0.64,2.76c-0.42,0.84-1.01,1.55-1.75,2.14
		c-0.74,0.59-1.62,1.05-2.62,1.37c-1,0.32-2.07,0.48-3.19,0.48c-1.91,0-3.59-0.44-5.03-1.32c-1.44-0.88-2.41-2.1-2.89-3.64
		c-0.03-0.09-0.05-0.23-0.05-0.41c0-0.39,0.13-0.74,0.39-1.05c0.26-0.3,0.6-0.46,1.03-0.46c0.33,0,0.63,0.1,0.89,0.3
		c0.26,0.2,0.46,0.46,0.61,0.8c0.39,0.97,1.07,1.71,2.03,2.21c0.96,0.5,1.97,0.75,3.03,0.75c1.49,0,2.76-0.34,3.8-1.03
		s1.57-1.65,1.57-2.89c0-1-0.52-1.85-1.55-2.55s-2.31-1.15-3.83-1.37c-2.19-0.3-3.96-0.9-5.31-1.8
		C309.49,156.71,308.81,155.41,308.81,153.71z"/>
	<path d="M340.88,142.37c0-0.39,0.14-0.73,0.41-1s0.61-0.41,1-0.41c0.39,0,0.73,0.14,1,0.41s0.41,0.61,0.41,1v5.56h3.04
		c0.4,0,0.74,0.14,1.01,0.41s0.41,0.61,0.41,1c0,0.4-0.14,0.73-0.41,1s-0.61,0.41-1.01,0.41h-3.04v17.9c0,0.39-0.13,0.73-0.4,1
		c-0.27,0.27-0.6,0.41-0.99,0.41s-0.72-0.14-0.99-0.41c-0.27-0.27-0.4-0.61-0.4-1v-17.9h-3.04c-0.4,0-0.74-0.14-1.01-0.41
		s-0.42-0.61-0.42-1c0-0.39,0.14-0.73,0.41-1s0.61-0.41,1-0.41h3.01V142.37z"/>
	<path d="M378.74,165.92c-1,1.12-2.21,2.09-3.62,2.89s-2.94,1.21-4.58,1.21c-1.52,0-2.94-0.27-4.26-0.82s-2.48-1.3-3.48-2.28
		c-1-0.97-1.79-2.12-2.37-3.46c-0.58-1.34-0.87-2.79-0.87-4.37c0-1.52,0.28-2.95,0.84-4.3c0.56-1.35,1.34-2.53,2.32-3.53
		c0.99-1,2.16-1.79,3.51-2.37c1.35-0.58,2.82-0.87,4.4-0.87c1.46,0,2.85,0.3,4.17,0.89s2.48,1.39,3.48,2.39c1,1,1.8,2.17,2.39,3.51
		c0.59,1.34,0.89,2.77,0.89,4.28v9.61c0,0.39-0.14,0.73-0.41,1s-0.61,0.41-1,0.41s-0.73-0.14-1-0.41s-0.41-0.61-0.41-1V165.92z
		 M378.74,159.09c0-1.12-0.21-2.19-0.64-3.19c-0.43-1-1.01-1.88-1.75-2.62c-0.75-0.74-1.62-1.33-2.62-1.75
		c-1-0.43-2.07-0.64-3.19-0.64c-1.12,0-2.18,0.21-3.17,0.64c-0.99,0.43-1.85,1.01-2.6,1.75c-0.75,0.74-1.33,1.62-1.75,2.62
		c-0.43,1-0.64,2.07-0.64,3.19s0.21,2.18,0.64,3.17c0.42,0.99,1.01,1.85,1.75,2.6c0.74,0.74,1.61,1.33,2.6,1.75
		c0.99,0.43,2.04,0.64,3.17,0.64c1.09,0,2.12-0.21,3.1-0.62c0.97-0.41,1.83-0.98,2.57-1.71c0.74-0.73,1.34-1.59,1.78-2.57
		S378.68,160.27,378.74,159.09z"/>
	<path d="M396.37,149.38c0-0.39,0.14-0.73,0.41-1s0.61-0.41,1-0.41s0.73,0.14,1,0.41s0.41,0.61,0.41,1v12.48
		c0,0.73,0.14,1.42,0.43,2.07c0.29,0.65,0.67,1.22,1.16,1.71c0.49,0.49,1.06,0.87,1.71,1.14c0.65,0.27,1.34,0.41,2.07,0.41
		c0.73,0,1.41-0.14,2.05-0.41c0.64-0.27,1.19-0.64,1.66-1.09s0.85-0.99,1.14-1.62c0.29-0.62,0.45-1.28,0.48-1.98v-12.71
		c0-0.39,0.14-0.73,0.41-1s0.61-0.41,1-0.41s0.73,0.14,1,0.41s0.41,0.61,0.41,1v19.27c0,0.39-0.14,0.73-0.41,1s-0.61,0.41-1,0.41
		s-0.73-0.14-1-0.41s-0.41-0.61-0.41-1v-0.59c-0.7,0.61-1.5,1.09-2.41,1.46c-0.91,0.37-1.88,0.55-2.92,0.55
		c-1.12,0-2.19-0.21-3.19-0.64c-1-0.43-1.88-1.01-2.62-1.75s-1.33-1.62-1.75-2.62c-0.42-1-0.64-2.07-0.64-3.19V149.38z"/>
	<path d="M427.39,149.34c0-0.39,0.14-0.73,0.41-1s0.61-0.41,1-0.41c0.39,0,0.73,0.14,1,0.41s0.41,0.61,0.41,1v2.23
		c0.97-1.06,2.14-1.94,3.51-2.62c1.37-0.68,2.85-1.03,4.46-1.03c0.49,0,0.87,0.14,1.16,0.41c0.29,0.27,0.43,0.61,0.43,1
		c0,0.4-0.14,0.73-0.43,1c-0.29,0.27-0.68,0.41-1.16,0.41c-1.09,0-2.11,0.21-3.05,0.64s-1.77,1-2.48,1.73
		c-0.71,0.73-1.29,1.56-1.73,2.51c-0.44,0.94-0.68,1.93-0.71,2.96v10.07c0,0.39-0.14,0.73-0.41,1s-0.61,0.41-1,0.41
		c-0.4,0-0.73-0.14-1-0.41s-0.41-0.61-0.41-1V149.34z"/>
	<path d="M471.08,165.92c-1,1.12-2.21,2.09-3.62,2.89s-2.94,1.21-4.58,1.21c-1.52,0-2.94-0.27-4.26-0.82s-2.48-1.3-3.48-2.28
		c-1-0.97-1.79-2.12-2.37-3.46c-0.58-1.34-0.87-2.79-0.87-4.37c0-1.52,0.28-2.95,0.84-4.3c0.56-1.35,1.34-2.53,2.32-3.53
		c0.99-1,2.16-1.79,3.51-2.37c1.35-0.58,2.82-0.87,4.4-0.87c1.46,0,2.85,0.3,4.17,0.89s2.48,1.39,3.48,2.39c1,1,1.8,2.17,2.39,3.51
		c0.59,1.34,0.89,2.77,0.89,4.28v9.61c0,0.39-0.14,0.73-0.41,1s-0.61,0.41-1,0.41s-0.73-0.14-1-0.41s-0.41-0.61-0.41-1V165.92z
		 M471.08,159.09c0-1.12-0.21-2.19-0.64-3.19c-0.43-1-1.01-1.88-1.75-2.62c-0.75-0.74-1.62-1.33-2.62-1.75
		c-1-0.43-2.07-0.64-3.19-0.64c-1.12,0-2.18,0.21-3.17,0.64c-0.99,0.43-1.85,1.01-2.6,1.75c-0.75,0.74-1.33,1.62-1.75,2.62
		c-0.43,1-0.64,2.07-0.64,3.19s0.21,2.18,0.64,3.17c0.42,0.99,1.01,1.85,1.75,2.6c0.74,0.74,1.61,1.33,2.6,1.75
		c0.99,0.43,2.04,0.64,3.17,0.64c1.09,0,2.12-0.21,3.1-0.62c0.97-0.41,1.83-0.98,2.57-1.71c0.74-0.73,1.34-1.59,1.78-2.57
		S471.02,160.27,471.08,159.09z"/>
	<path d="M488.85,149.34c0-0.39,0.14-0.73,0.41-1c0.27-0.27,0.61-0.41,1-0.41c0.39,0,0.73,0.14,1,0.41s0.41,0.61,0.41,1v0.59
		c0.7-0.61,1.5-1.09,2.41-1.46c0.91-0.36,1.88-0.55,2.92-0.55c1.12,0,2.19,0.21,3.19,0.64c1,0.43,1.88,1.01,2.62,1.75
		c0.74,0.74,1.33,1.62,1.75,2.62c0.42,1,0.64,2.07,0.64,3.19v12.53c0,0.39-0.14,0.73-0.41,1s-0.61,0.41-1,0.41
		c-0.4,0-0.73-0.14-1-0.41c-0.27-0.27-0.41-0.61-0.41-1v-12.53c0-0.73-0.14-1.42-0.43-2.07c-0.29-0.65-0.68-1.22-1.16-1.71
		c-0.49-0.49-1.06-0.87-1.71-1.14c-0.65-0.27-1.34-0.41-2.07-0.41s-1.41,0.14-2.05,0.41s-1.2,0.64-1.69,1.09
		c-0.49,0.46-0.87,0.99-1.14,1.62c-0.27,0.62-0.42,1.28-0.46,1.98v12.76c0,0.39-0.14,0.73-0.41,1s-0.61,0.41-1,0.41
		c-0.4,0-0.73-0.14-1-0.41c-0.27-0.27-0.41-0.61-0.41-1V149.34z"/>
	<path d="M522.43,142.37c0-0.39,0.14-0.73,0.41-1s0.61-0.41,1-0.41s0.73,0.14,1,0.41c0.27,0.27,0.41,0.61,0.41,1v5.56h3.04
		c0.4,0,0.74,0.14,1.01,0.41s0.41,0.61,0.41,1c0,0.4-0.14,0.73-0.41,1s-0.61,0.41-1.01,0.41h-3.04v17.9c0,0.39-0.13,0.73-0.4,1
		s-0.6,0.41-0.99,0.41c-0.39,0-0.72-0.14-0.99-0.41c-0.27-0.27-0.4-0.61-0.4-1v-17.9h-3.04c-0.4,0-0.74-0.14-1.01-0.41
		s-0.41-0.61-0.41-1c0-0.39,0.14-0.73,0.41-1s0.61-0.41,1-0.41h3.01V142.37z"/>
</g>
<g class="st3">
	<path class="st0" d="M266.05,135.34h-15.12c-0.88,0-1.65-0.34-2.28-1.03c-0.64-0.69-0.96-1.47-0.96-2.33V99.02
		c0-0.99,0.34-1.78,1.01-2.38c0.67-0.6,1.51-0.92,2.51-0.96c0.87,0,1.61,0.34,2.24,1.03s0.94,1.46,0.94,2.31v29.61h11.65
		c0.99,0,1.78,0.34,2.38,1.01c0.6,0.67,0.92,1.5,0.96,2.49c0,0.88-0.34,1.64-1.03,2.27C267.67,135.02,266.9,135.34,266.05,135.34z"
		/>
	<path class="st0" d="M297.9,135.34c-0.63,0-1.26-0.2-1.89-0.6c-0.63-0.4-1.08-1.02-1.35-1.87c-0.02,0-0.49-1.5-1.43-4.51h-11.35
		l-1.4,4.51c-0.25,0.76-0.68,1.36-1.26,1.8s-1.25,0.65-2,0.65c-1.14,0-2.02-0.44-2.65-1.33c-0.46-0.63-0.69-1.31-0.69-2.04
		c0-0.17,0.01-0.34,0.04-0.51c0.03-0.17,2.08-6.73,6.16-19.69c2.84-9.09,4.34-13.84,4.51-14.23c0.32-0.61,0.76-1.07,1.3-1.38
		c0.54-0.31,1.11-0.46,1.71-0.46c0.61,0,1.19,0.17,1.75,0.5c0.55,0.33,0.98,0.83,1.29,1.49c0.02,0.02,0.03,0.03,0.04,0.05
		s0.06,0.2,0.17,0.56l10.28,32.82c0.08,0.31,0.13,0.6,0.13,0.89c0,0.8-0.32,1.56-0.97,2.27
		C299.62,134.98,298.83,135.34,297.9,135.34z M291.14,121.64l-3.57-11.4l-3.57,11.4H291.14z"/>
	<path class="st0" d="M347.89,135.34h-0.13c-0.87,0-1.62-0.34-2.26-1.03c-0.64-0.69-0.96-1.47-0.96-2.33v-20.86l-4.77,7.96
		c-0.36,0.58-0.79,1-1.3,1.26c-0.51,0.26-1.04,0.4-1.58,0.4c-0.59,0-1.16-0.14-1.68-0.43c-0.53-0.29-0.94-0.7-1.25-1.22l-4.77-7.96
		v20.86c0,0.97-0.33,1.76-0.99,2.38c-0.66,0.62-1.49,0.95-2.47,0.98c-0.87,0-1.62-0.34-2.27-1.03c-0.65-0.69-0.97-1.47-0.97-2.33
		V99.02c0-0.9,0.33-1.69,0.98-2.36c0.65-0.67,1.42-1.01,2.31-1.01c1.31,0.02,2.29,0.58,2.96,1.68l8.13,13.52l8.13-13.52
		c0.32-0.53,0.75-0.93,1.29-1.22s1.09-0.43,1.67-0.43c0.78,0,1.51,0.28,2.19,0.85c0.68,0.57,1.05,1.42,1.1,2.54v32.9
		c0,0.93-0.32,1.72-0.97,2.35C349.64,134.94,348.84,135.29,347.89,135.34z"/>
	<path class="st0" d="M380.09,135.34c-0.63,0-1.26-0.2-1.89-0.6c-0.63-0.4-1.08-1.02-1.35-1.87c-0.02,0-0.49-1.5-1.43-4.51h-11.35
		l-1.4,4.51c-0.25,0.76-0.68,1.36-1.26,1.8c-0.59,0.43-1.25,0.65-2,0.65c-1.14,0-2.02-0.44-2.65-1.33
		c-0.46-0.63-0.69-1.31-0.69-2.04c0-0.17,0.01-0.34,0.04-0.51c0.03-0.17,2.08-6.73,6.16-19.69c2.84-9.09,4.34-13.84,4.51-14.23
		c0.32-0.61,0.76-1.07,1.3-1.38c0.54-0.31,1.11-0.46,1.71-0.46c0.61,0,1.19,0.17,1.75,0.5c0.55,0.33,0.98,0.83,1.29,1.49
		c0.02,0.02,0.03,0.03,0.04,0.05s0.06,0.2,0.17,0.56l10.28,32.82c0.08,0.31,0.13,0.6,0.13,0.89c0,0.8-0.32,1.56-0.97,2.27
		C381.82,134.98,381.03,135.34,380.09,135.34z M373.33,121.64l-3.57-11.4l-3.57,11.4H373.33z"/>
	<path class="st0" d="M406.5,135.34h-15.12c-0.88,0-1.64-0.34-2.28-1.03s-0.96-1.47-0.96-2.33V99.02c0-0.99,0.33-1.78,1.01-2.38
		s1.51-0.92,2.51-0.96c0.87,0,1.61,0.34,2.24,1.03s0.94,1.46,0.94,2.31v29.61h11.65c0.99,0,1.78,0.34,2.38,1.01
		c0.6,0.67,0.92,1.5,0.96,2.49c0,0.88-0.34,1.64-1.03,2.27C408.12,135.02,407.36,135.34,406.5,135.34z"/>
	<path class="st0" d="M419.71,135.34c-0.61,0-1.19-0.17-1.73-0.5c-0.54-0.33-0.98-0.84-1.3-1.52c-0.02-0.02-0.03-0.03-0.04-0.05
		c-0.01-0.02-0.06-0.17-0.15-0.46c-0.09-0.29-0.34-1.1-0.75-2.42l-9.56-30.47c-0.08-0.31-0.13-0.6-0.13-0.89
		c0-0.8,0.32-1.56,0.96-2.28c0.64-0.72,1.43-1.08,2.38-1.08c0.63,0,1.26,0.2,1.89,0.6c0.63,0.4,1.09,1.02,1.38,1.88l7.09,22.62
		l7.09-22.62c0.25-0.77,0.68-1.36,1.27-1.8c0.6-0.43,1.27-0.65,2.01-0.65c1.11,0,1.97,0.44,2.6,1.33c0.46,0.63,0.69,1.31,0.69,2.04
		c0,0.29-0.04,0.58-0.13,0.87c0,0.08-1.73,5.63-5.18,16.63c-3.35,10.75-5.14,16.4-5.38,16.96c-0.32,0.59-0.76,1.05-1.3,1.36
		C420.87,135.18,420.3,135.34,419.71,135.34z"/>
	<path class="st0" d="M456.22,135.34c-0.63,0-1.26-0.2-1.89-0.6s-1.08-1.02-1.35-1.87c-0.02,0-0.49-1.5-1.43-4.51H440.2l-1.4,4.51
		c-0.25,0.76-0.68,1.36-1.26,1.8c-0.59,0.43-1.25,0.65-2,0.65c-1.14,0-2.02-0.44-2.65-1.33c-0.46-0.63-0.69-1.31-0.69-2.04
		c0-0.17,0.01-0.34,0.04-0.51c0.03-0.17,2.08-6.73,6.16-19.69c2.84-9.09,4.34-13.84,4.51-14.23c0.32-0.61,0.76-1.07,1.3-1.38
		c0.54-0.31,1.11-0.46,1.71-0.46c0.61,0,1.19,0.17,1.75,0.5c0.55,0.33,0.98,0.83,1.29,1.49c0.02,0.02,0.03,0.03,0.04,0.05
		s0.06,0.2,0.17,0.56l10.28,32.82c0.08,0.31,0.13,0.6,0.13,0.89c0,0.8-0.32,1.56-0.97,2.27
		C457.94,134.98,457.15,135.34,456.22,135.34z M449.46,121.64l-3.57-11.4l-3.57,11.4H449.46z"/>
	<path class="st0" d="M473.4,135.82c-2.26,0-4.31-0.69-6.15-2.07s-3.05-3.19-3.65-5.43c-0.07-0.29-0.1-0.57-0.1-0.84
		c0-0.88,0.32-1.67,0.97-2.36c0.65-0.69,1.43-1.03,2.35-1.03c0.73,0,1.41,0.23,2.03,0.69c0.62,0.46,1.03,1.05,1.24,1.79
		c0.22,0.83,0.64,1.46,1.26,1.89c0.62,0.43,1.3,0.64,2.03,0.64c1.09,0,1.99-0.4,2.7-1.2s1.07-1.65,1.07-2.55
		c0-0.97-0.33-1.81-1-2.52l-5.05-5c-2.91-2.84-4.51-4.41-4.79-4.72c-1.89-2.11-2.83-4.45-2.83-7.04c0-2.53,0.83-4.8,2.49-6.8
		c1.66-2,3.77-3.22,6.34-3.66c0.59-0.08,1.17-0.13,1.73-0.13c1.67,0,3.17,0.33,4.5,0.98c1.33,0.66,2.44,1.53,3.33,2.61
		c0.88,1.09,1.5,2.3,1.86,3.65c0.08,0.31,0.13,0.6,0.13,0.89c0,0.88-0.33,1.67-0.99,2.35c-0.66,0.68-1.45,1.02-2.35,1.02
		c-0.71,0-1.38-0.23-2-0.69c-0.62-0.46-1.04-1.06-1.25-1.81s-0.63-1.33-1.25-1.73c-0.62-0.41-1.27-0.61-1.95-0.61
		c-1.05,0-1.96,0.39-2.73,1.17c-0.77,0.78-1.15,1.65-1.15,2.6c0,0.75,0.25,1.52,0.76,2.32c0.32,0.36,1.71,1.73,4.16,4.13
		c3.71,3.6,5.79,5.68,6.25,6.22c1.67,2.09,2.5,4.35,2.5,6.78c0,1.68-0.39,3.26-1.17,4.74c-0.78,1.48-1.86,2.72-3.24,3.72
		C477.57,135.16,475.56,135.82,473.4,135.82z"/>
	<path class="st0" d="M493.72,135.34h-0.13c-0.87,0-1.62-0.34-2.27-1.03c-0.65-0.69-0.97-1.47-0.97-2.33V99.02
		c0-0.99,0.34-1.78,1.02-2.38c0.68-0.6,1.51-0.92,2.5-0.96c0.87,0,1.62,0.34,2.26,1.03s0.96,1.46,0.96,2.31v32.95
		c0,0.93-0.33,1.72-0.98,2.35S494.65,135.29,493.72,135.34z"/>
	<path class="st0" d="M525.92,135.34c-0.63,0-1.26-0.2-1.89-0.6s-1.08-1.02-1.35-1.87c-0.02,0-0.49-1.5-1.43-4.51H509.9l-1.4,4.51
		c-0.25,0.76-0.68,1.36-1.26,1.8c-0.59,0.43-1.25,0.65-2,0.65c-1.14,0-2.02-0.44-2.65-1.33c-0.46-0.63-0.69-1.31-0.69-2.04
		c0-0.17,0.01-0.34,0.04-0.51c0.03-0.17,2.08-6.73,6.16-19.69c2.84-9.09,4.34-13.84,4.51-14.23c0.32-0.61,0.76-1.07,1.3-1.38
		c0.54-0.31,1.11-0.46,1.71-0.46c0.61,0,1.19,0.17,1.75,0.5c0.55,0.33,0.98,0.83,1.29,1.49c0.02,0.02,0.03,0.03,0.04,0.05
		s0.06,0.2,0.17,0.56l10.28,32.82c0.08,0.31,0.13,0.6,0.13,0.89c0,0.8-0.32,1.56-0.97,2.27
		C527.64,134.98,526.85,135.34,525.92,135.34z M519.16,121.64l-3.57-11.4l-3.57,11.4H519.16z"/>
</g>
<g class="st3">
	<path class="st0" d="M264.03,132.45h-15.12c-0.88,0-1.65-0.34-2.28-1.03c-0.64-0.69-0.96-1.47-0.96-2.33V96.14
		c0-0.99,0.34-1.78,1.01-2.38c0.67-0.6,1.51-0.92,2.51-0.96c0.87,0,1.61,0.34,2.24,1.03s0.94,1.46,0.94,2.31v29.61h11.65
		c0.99,0,1.78,0.34,2.38,1.01c0.6,0.67,0.92,1.5,0.96,2.49c0,0.88-0.34,1.64-1.03,2.27C265.65,132.14,264.88,132.45,264.03,132.45z"
		/>
	<path class="st0" d="M295.87,132.45c-0.63,0-1.26-0.2-1.89-0.6c-0.63-0.4-1.08-1.02-1.35-1.87c-0.02,0-0.49-1.5-1.43-4.51h-11.35
		l-1.4,4.51c-0.25,0.76-0.68,1.36-1.26,1.8s-1.25,0.65-2,0.65c-1.14,0-2.02-0.44-2.65-1.33c-0.46-0.63-0.69-1.31-0.69-2.04
		c0-0.17,0.01-0.34,0.04-0.51c0.03-0.17,2.08-6.73,6.16-19.69c2.84-9.09,4.34-13.84,4.51-14.23c0.32-0.61,0.76-1.07,1.3-1.38
		c0.54-0.31,1.11-0.46,1.71-0.46c0.61,0,1.19,0.17,1.75,0.5c0.55,0.33,0.98,0.83,1.29,1.49c0.02,0.02,0.03,0.03,0.04,0.05
		s0.06,0.2,0.17,0.56l10.28,32.82c0.08,0.31,0.13,0.6,0.13,0.89c0,0.8-0.32,1.56-0.97,2.27C297.6,132.1,296.81,132.45,295.87,132.45
		z M289.12,118.76l-3.57-11.4l-3.57,11.4H289.12z"/>
	<path class="st0" d="M345.87,132.45h-0.13c-0.87,0-1.62-0.34-2.26-1.03c-0.64-0.69-0.96-1.47-0.96-2.33v-20.86l-4.77,7.96
		c-0.36,0.58-0.79,1-1.3,1.26c-0.51,0.26-1.04,0.4-1.58,0.4c-0.59,0-1.16-0.14-1.68-0.43c-0.53-0.29-0.94-0.7-1.25-1.22l-4.77-7.96
		v20.86c0,0.97-0.33,1.76-0.99,2.38c-0.66,0.62-1.49,0.95-2.47,0.98c-0.87,0-1.62-0.34-2.27-1.03c-0.65-0.69-0.97-1.47-0.97-2.33
		V96.14c0-0.9,0.33-1.69,0.98-2.36c0.65-0.67,1.42-1.01,2.31-1.01c1.31,0.02,2.29,0.58,2.96,1.68l8.13,13.52l8.13-13.52
		c0.32-0.53,0.75-0.93,1.29-1.22s1.09-0.43,1.67-0.43c0.78,0,1.51,0.28,2.19,0.85c0.68,0.57,1.05,1.42,1.1,2.54v32.9
		c0,0.93-0.32,1.72-0.97,2.35C347.62,132.06,346.82,132.4,345.87,132.45z"/>
	<path class="st0" d="M378.07,132.45c-0.63,0-1.26-0.2-1.89-0.6c-0.63-0.4-1.08-1.02-1.35-1.87c-0.02,0-0.49-1.5-1.43-4.51h-11.35
		l-1.4,4.51c-0.25,0.76-0.68,1.36-1.26,1.8c-0.59,0.43-1.25,0.65-2,0.65c-1.14,0-2.02-0.44-2.65-1.33
		c-0.46-0.63-0.69-1.31-0.69-2.04c0-0.17,0.01-0.34,0.04-0.51c0.03-0.17,2.08-6.73,6.16-19.69c2.84-9.09,4.34-13.84,4.51-14.23
		c0.32-0.61,0.76-1.07,1.3-1.38c0.54-0.31,1.11-0.46,1.71-0.46c0.61,0,1.19,0.17,1.75,0.5c0.55,0.33,0.98,0.83,1.29,1.49
		c0.02,0.02,0.03,0.03,0.04,0.05s0.06,0.2,0.17,0.56l10.28,32.82c0.08,0.31,0.13,0.6,0.13,0.89c0,0.8-0.32,1.56-0.97,2.27
		C379.79,132.1,379,132.45,378.07,132.45z M371.31,118.76l-3.57-11.4l-3.57,11.4H371.31z"/>
	<path class="st0" d="M404.48,132.45h-15.12c-0.88,0-1.64-0.34-2.28-1.03s-0.96-1.47-0.96-2.33V96.14c0-0.99,0.33-1.78,1.01-2.38
		s1.51-0.92,2.51-0.96c0.87,0,1.61,0.34,2.24,1.03s0.94,1.46,0.94,2.31v29.61h11.65c0.99,0,1.78,0.34,2.38,1.01
		c0.6,0.67,0.92,1.5,0.96,2.49c0,0.88-0.34,1.64-1.03,2.27C406.1,132.14,405.33,132.45,404.48,132.45z"/>
	<path class="st0" d="M417.68,132.45c-0.61,0-1.19-0.17-1.73-0.5c-0.54-0.33-0.98-0.84-1.3-1.52c-0.02-0.02-0.03-0.03-0.04-0.05
		c-0.01-0.02-0.06-0.17-0.15-0.46c-0.09-0.29-0.34-1.1-0.75-2.42l-9.56-30.47c-0.08-0.31-0.13-0.6-0.13-0.89
		c0-0.8,0.32-1.56,0.96-2.28c0.64-0.72,1.43-1.08,2.38-1.08c0.63,0,1.26,0.2,1.89,0.6c0.63,0.4,1.09,1.02,1.38,1.88l7.09,22.62
		l7.09-22.62c0.25-0.77,0.68-1.36,1.27-1.8c0.6-0.43,1.27-0.65,2.01-0.65c1.11,0,1.97,0.44,2.6,1.33c0.46,0.63,0.69,1.31,0.69,2.04
		c0,0.29-0.04,0.58-0.13,0.87c0,0.08-1.73,5.63-5.18,16.63c-3.35,10.75-5.14,16.4-5.38,16.96c-0.32,0.59-0.76,1.05-1.3,1.36
		C418.85,132.3,418.28,132.45,417.68,132.45z"/>
	<path class="st0" d="M454.2,132.45c-0.63,0-1.26-0.2-1.89-0.6s-1.08-1.02-1.35-1.87c-0.02,0-0.49-1.5-1.43-4.51h-11.35l-1.4,4.51
		c-0.25,0.76-0.68,1.36-1.26,1.8c-0.59,0.43-1.25,0.65-2,0.65c-1.14,0-2.02-0.44-2.65-1.33c-0.46-0.63-0.69-1.31-0.69-2.04
		c0-0.17,0.01-0.34,0.04-0.51c0.03-0.17,2.08-6.73,6.16-19.69c2.84-9.09,4.34-13.84,4.51-14.23c0.32-0.61,0.76-1.07,1.3-1.38
		c0.54-0.31,1.11-0.46,1.71-0.46c0.61,0,1.19,0.17,1.75,0.5c0.55,0.33,0.98,0.83,1.29,1.49c0.02,0.02,0.03,0.03,0.04,0.05
		s0.06,0.2,0.17,0.56l10.28,32.82c0.08,0.31,0.13,0.6,0.13,0.89c0,0.8-0.32,1.56-0.97,2.27C455.92,132.1,455.13,132.45,454.2,132.45
		z M447.44,118.76l-3.57-11.4l-3.57,11.4H447.44z"/>
	<path class="st0" d="M471.38,132.94c-2.26,0-4.31-0.69-6.15-2.07s-3.05-3.19-3.65-5.43c-0.07-0.29-0.1-0.57-0.1-0.84
		c0-0.88,0.32-1.67,0.97-2.36c0.65-0.69,1.43-1.03,2.35-1.03c0.73,0,1.41,0.23,2.03,0.69c0.62,0.46,1.03,1.05,1.24,1.79
		c0.22,0.83,0.64,1.46,1.26,1.89c0.62,0.43,1.3,0.64,2.03,0.64c1.09,0,1.99-0.4,2.7-1.2s1.07-1.65,1.07-2.55
		c0-0.97-0.33-1.81-1-2.52l-5.05-5c-2.91-2.84-4.51-4.41-4.79-4.72c-1.89-2.11-2.83-4.45-2.83-7.04c0-2.53,0.83-4.8,2.49-6.8
		c1.66-2,3.77-3.22,6.34-3.66c0.59-0.08,1.17-0.13,1.73-0.13c1.67,0,3.17,0.33,4.5,0.98c1.33,0.66,2.44,1.53,3.33,2.61
		c0.88,1.09,1.5,2.3,1.86,3.65c0.08,0.31,0.13,0.6,0.13,0.89c0,0.88-0.33,1.67-0.99,2.35c-0.66,0.68-1.45,1.02-2.35,1.02
		c-0.71,0-1.38-0.23-2-0.69c-0.62-0.46-1.04-1.06-1.25-1.81s-0.63-1.33-1.25-1.73c-0.62-0.41-1.27-0.61-1.95-0.61
		c-1.05,0-1.96,0.39-2.73,1.17c-0.77,0.78-1.15,1.65-1.15,2.6c0,0.75,0.25,1.52,0.76,2.32c0.32,0.36,1.71,1.73,4.16,4.13
		c3.71,3.6,5.79,5.68,6.25,6.22c1.67,2.09,2.5,4.35,2.5,6.78c0,1.68-0.39,3.26-1.17,4.74c-0.78,1.48-1.86,2.72-3.24,3.72
		C475.55,132.28,473.54,132.94,471.38,132.94z"/>
	<path class="st0" d="M491.69,132.45h-0.13c-0.87,0-1.62-0.34-2.27-1.03c-0.65-0.69-0.97-1.47-0.97-2.33V96.14
		c0-0.99,0.34-1.78,1.02-2.38c0.68-0.6,1.51-0.92,2.5-0.96c0.87,0,1.62,0.34,2.26,1.03s0.96,1.46,0.96,2.31v32.95
		c0,0.93-0.33,1.72-0.98,2.35S492.63,132.4,491.69,132.45z"/>
	<path class="st0" d="M523.9,132.45c-0.63,0-1.26-0.2-1.89-0.6s-1.08-1.02-1.35-1.87c-0.02,0-0.49-1.5-1.43-4.51h-11.35l-1.4,4.51
		c-0.25,0.76-0.68,1.36-1.26,1.8c-0.59,0.43-1.25,0.65-2,0.65c-1.14,0-2.02-0.44-2.65-1.33c-0.46-0.63-0.69-1.31-0.69-2.04
		c0-0.17,0.01-0.34,0.04-0.51c0.03-0.17,2.08-6.73,6.16-19.69c2.84-9.09,4.34-13.84,4.51-14.23c0.32-0.61,0.76-1.07,1.3-1.38
		c0.54-0.31,1.11-0.46,1.71-0.46c0.61,0,1.19,0.17,1.75,0.5c0.55,0.33,0.98,0.83,1.29,1.49c0.02,0.02,0.03,0.03,0.04,0.05
		s0.06,0.2,0.17,0.56l10.28,32.82c0.08,0.31,0.13,0.6,0.13,0.89c0,0.8-0.32,1.56-0.97,2.27C525.62,132.1,524.83,132.45,523.9,132.45
		z M517.14,118.76l-3.57-11.4l-3.57,11.4H517.14z"/>
</g>
<g class="st3">
	<path class="st4" d="M264.03,132.45h-15.12c-0.88,0-1.65-0.34-2.28-1.03c-0.64-0.69-0.96-1.47-0.96-2.33V96.14
		c0-0.99,0.34-1.78,1.01-2.38c0.67-0.6,1.51-0.92,2.51-0.96c0.87,0,1.61,0.34,2.24,1.03s0.94,1.46,0.94,2.31v29.61h11.65
		c0.99,0,1.78,0.34,2.38,1.01c0.6,0.67,0.92,1.5,0.96,2.49c0,0.88-0.34,1.64-1.03,2.27C265.65,132.14,264.88,132.45,264.03,132.45z"
		/>
	<path class="st4" d="M295.87,132.45c-0.63,0-1.26-0.2-1.89-0.6c-0.63-0.4-1.08-1.02-1.35-1.87c-0.02,0-0.49-1.5-1.43-4.51h-11.35
		l-1.4,4.51c-0.25,0.76-0.68,1.36-1.26,1.8s-1.25,0.65-2,0.65c-1.14,0-2.02-0.44-2.65-1.33c-0.46-0.63-0.69-1.31-0.69-2.04
		c0-0.17,0.01-0.34,0.04-0.51c0.03-0.17,2.08-6.73,6.16-19.69c2.84-9.09,4.34-13.84,4.51-14.23c0.32-0.61,0.76-1.07,1.3-1.38
		c0.54-0.31,1.11-0.46,1.71-0.46c0.61,0,1.19,0.17,1.75,0.5c0.55,0.33,0.98,0.83,1.29,1.49c0.02,0.02,0.03,0.03,0.04,0.05
		s0.06,0.2,0.17,0.56l10.28,32.82c0.08,0.31,0.13,0.6,0.13,0.89c0,0.8-0.32,1.56-0.97,2.27C297.6,132.1,296.81,132.45,295.87,132.45
		z M289.12,118.76l-3.57-11.4l-3.57,11.4H289.12z"/>
	<path class="st4" d="M345.87,132.45h-0.13c-0.87,0-1.62-0.34-2.26-1.03c-0.64-0.69-0.96-1.47-0.96-2.33v-20.86l-4.77,7.96
		c-0.36,0.58-0.79,1-1.3,1.26c-0.51,0.26-1.04,0.4-1.58,0.4c-0.59,0-1.16-0.14-1.68-0.43c-0.53-0.29-0.94-0.7-1.25-1.22l-4.77-7.96
		v20.86c0,0.97-0.33,1.76-0.99,2.38c-0.66,0.62-1.49,0.95-2.47,0.98c-0.87,0-1.62-0.34-2.27-1.03c-0.65-0.69-0.97-1.47-0.97-2.33
		V96.14c0-0.9,0.33-1.69,0.98-2.36c0.65-0.67,1.42-1.01,2.31-1.01c1.31,0.02,2.29,0.58,2.96,1.68l8.13,13.52l8.13-13.52
		c0.32-0.53,0.75-0.93,1.29-1.22s1.09-0.43,1.67-0.43c0.78,0,1.51,0.28,2.19,0.85c0.68,0.57,1.05,1.42,1.1,2.54v32.9
		c0,0.93-0.32,1.72-0.97,2.35C347.62,132.06,346.82,132.4,345.87,132.45z"/>
	<path class="st4" d="M378.07,132.45c-0.63,0-1.26-0.2-1.89-0.6c-0.63-0.4-1.08-1.02-1.35-1.87c-0.02,0-0.49-1.5-1.43-4.51h-11.35
		l-1.4,4.51c-0.25,0.76-0.68,1.36-1.26,1.8c-0.59,0.43-1.25,0.65-2,0.65c-1.14,0-2.02-0.44-2.65-1.33
		c-0.46-0.63-0.69-1.31-0.69-2.04c0-0.17,0.01-0.34,0.04-0.51c0.03-0.17,2.08-6.73,6.16-19.69c2.84-9.09,4.34-13.84,4.51-14.23
		c0.32-0.61,0.76-1.07,1.3-1.38c0.54-0.31,1.11-0.46,1.71-0.46c0.61,0,1.19,0.17,1.75,0.5c0.55,0.33,0.98,0.83,1.29,1.49
		c0.02,0.02,0.03,0.03,0.04,0.05s0.06,0.2,0.17,0.56l10.28,32.82c0.08,0.31,0.13,0.6,0.13,0.89c0,0.8-0.32,1.56-0.97,2.27
		C379.79,132.1,379,132.45,378.07,132.45z M371.31,118.76l-3.57-11.4l-3.57,11.4H371.31z"/>
	<path class="st4" d="M404.48,132.45h-15.12c-0.88,0-1.64-0.34-2.28-1.03s-0.96-1.47-0.96-2.33V96.14c0-0.99,0.33-1.78,1.01-2.38
		s1.51-0.92,2.51-0.96c0.87,0,1.61,0.34,2.24,1.03s0.94,1.46,0.94,2.31v29.61h11.65c0.99,0,1.78,0.34,2.38,1.01
		c0.6,0.67,0.92,1.5,0.96,2.49c0,0.88-0.34,1.64-1.03,2.27C406.1,132.14,405.33,132.45,404.48,132.45z"/>
	<path class="st4" d="M417.68,132.45c-0.61,0-1.19-0.17-1.73-0.5c-0.54-0.33-0.98-0.84-1.3-1.52c-0.02-0.02-0.03-0.03-0.04-0.05
		c-0.01-0.02-0.06-0.17-0.15-0.46c-0.09-0.29-0.34-1.1-0.75-2.42l-9.56-30.47c-0.08-0.31-0.13-0.6-0.13-0.89
		c0-0.8,0.32-1.56,0.96-2.28c0.64-0.72,1.43-1.08,2.38-1.08c0.63,0,1.26,0.2,1.89,0.6c0.63,0.4,1.09,1.02,1.38,1.88l7.09,22.62
		l7.09-22.62c0.25-0.77,0.68-1.36,1.27-1.8c0.6-0.43,1.27-0.65,2.01-0.65c1.11,0,1.97,0.44,2.6,1.33c0.46,0.63,0.69,1.31,0.69,2.04
		c0,0.29-0.04,0.58-0.13,0.87c0,0.08-1.73,5.63-5.18,16.63c-3.35,10.75-5.14,16.4-5.38,16.96c-0.32,0.59-0.76,1.05-1.3,1.36
		C418.85,132.3,418.28,132.45,417.68,132.45z"/>
	<path class="st4" d="M454.2,132.45c-0.63,0-1.26-0.2-1.89-0.6s-1.08-1.02-1.35-1.87c-0.02,0-0.49-1.5-1.43-4.51h-11.35l-1.4,4.51
		c-0.25,0.76-0.68,1.36-1.26,1.8c-0.59,0.43-1.25,0.65-2,0.65c-1.14,0-2.02-0.44-2.65-1.33c-0.46-0.63-0.69-1.31-0.69-2.04
		c0-0.17,0.01-0.34,0.04-0.51c0.03-0.17,2.08-6.73,6.16-19.69c2.84-9.09,4.34-13.84,4.51-14.23c0.32-0.61,0.76-1.07,1.3-1.38
		c0.54-0.31,1.11-0.46,1.71-0.46c0.61,0,1.19,0.17,1.75,0.5c0.55,0.33,0.98,0.83,1.29,1.49c0.02,0.02,0.03,0.03,0.04,0.05
		s0.06,0.2,0.17,0.56l10.28,32.82c0.08,0.31,0.13,0.6,0.13,0.89c0,0.8-0.32,1.56-0.97,2.27C455.92,132.1,455.13,132.45,454.2,132.45
		z M447.44,118.76l-3.57-11.4l-3.57,11.4H447.44z"/>
	<path class="st4" d="M471.38,132.94c-2.26,0-4.31-0.69-6.15-2.07s-3.05-3.19-3.65-5.43c-0.07-0.29-0.1-0.57-0.1-0.84
		c0-0.88,0.32-1.67,0.97-2.36c0.65-0.69,1.43-1.03,2.35-1.03c0.73,0,1.41,0.23,2.03,0.69c0.62,0.46,1.03,1.05,1.24,1.79
		c0.22,0.83,0.64,1.46,1.26,1.89c0.62,0.43,1.3,0.64,2.03,0.64c1.09,0,1.99-0.4,2.7-1.2s1.07-1.65,1.07-2.55
		c0-0.97-0.33-1.81-1-2.52l-5.05-5c-2.91-2.84-4.51-4.41-4.79-4.72c-1.89-2.11-2.83-4.45-2.83-7.04c0-2.53,0.83-4.8,2.49-6.8
		c1.66-2,3.77-3.22,6.34-3.66c0.59-0.08,1.17-0.13,1.73-0.13c1.67,0,3.17,0.33,4.5,0.98c1.33,0.66,2.44,1.53,3.33,2.61
		c0.88,1.09,1.5,2.3,1.86,3.65c0.08,0.31,0.13,0.6,0.13,0.89c0,0.88-0.33,1.67-0.99,2.35c-0.66,0.68-1.45,1.02-2.35,1.02
		c-0.71,0-1.38-0.23-2-0.69c-0.62-0.46-1.04-1.06-1.25-1.81s-0.63-1.33-1.25-1.73c-0.62-0.41-1.27-0.61-1.95-0.61
		c-1.05,0-1.96,0.39-2.73,1.17c-0.77,0.78-1.15,1.65-1.15,2.6c0,0.75,0.25,1.52,0.76,2.32c0.32,0.36,1.71,1.73,4.16,4.13
		c3.71,3.6,5.79,5.68,6.25,6.22c1.67,2.09,2.5,4.35,2.5,6.78c0,1.68-0.39,3.26-1.17,4.74c-0.78,1.48-1.86,2.72-3.24,3.72
		C475.55,132.28,473.54,132.94,471.38,132.94z"/>
	<path class="st4" d="M491.69,132.45h-0.13c-0.87,0-1.62-0.34-2.27-1.03c-0.65-0.69-0.97-1.47-0.97-2.33V96.14
		c0-0.99,0.34-1.78,1.02-2.38c0.68-0.6,1.51-0.92,2.5-0.96c0.87,0,1.62,0.34,2.26,1.03s0.96,1.46,0.96,2.31v32.95
		c0,0.93-0.33,1.72-0.98,2.35S492.63,132.4,491.69,132.45z"/>
	<path class="st4" d="M523.9,132.45c-0.63,0-1.26-0.2-1.89-0.6s-1.08-1.02-1.35-1.87c-0.02,0-0.49-1.5-1.43-4.51h-11.35l-1.4,4.51
		c-0.25,0.76-0.68,1.36-1.26,1.8c-0.59,0.43-1.25,0.65-2,0.65c-1.14,0-2.02-0.44-2.65-1.33c-0.46-0.63-0.69-1.31-0.69-2.04
		c0-0.17,0.01-0.34,0.04-0.51c0.03-0.17,2.08-6.73,6.16-19.69c2.84-9.09,4.34-13.84,4.51-14.23c0.32-0.61,0.76-1.07,1.3-1.38
		c0.54-0.31,1.11-0.46,1.71-0.46c0.61,0,1.19,0.17,1.75,0.5c0.55,0.33,0.98,0.83,1.29,1.49c0.02,0.02,0.03,0.03,0.04,0.05
		s0.06,0.2,0.17,0.56l10.28,32.82c0.08,0.31,0.13,0.6,0.13,0.89c0,0.8-0.32,1.56-0.97,2.27C525.62,132.1,524.83,132.45,523.9,132.45
		z M517.14,118.76l-3.57-11.4l-3.57,11.4H517.14z"/>
</g>
</svg>
